<svg version="1.1" id="Layer_1" xmlns="http://www.w3.org/2000/svg" x="0px" y="0px" width="25"
    height="25" viewBox="0 0 96 96" enable-background="new 0 0 96 96" xml:space="preserve">
    <path fill="#FFFFFF" opacity="1.000000" stroke="none" d="
    M47.015900,20.166107
	C48.963917,16.394176 50.911938,12.622245 53.090023,8.404840 
	C54.624714,10.058811 55.636871,11.149632 56.402531,11.974801 
	C54.701859,16.613012 53.065525,21.075752 51.001842,26.703991 
	C59.682514,22.803999 67.028778,20.855915 74.400444,24.940487 
	C81.111588,28.659079 84.524292,34.531738 85.060310,42.342262 
	C86.060631,56.918209 81.315712,68.899773 70.141701,78.414467 
	C63.576061,84.005127 55.877609,84.741890 48.843266,80.044891 
	C41.424309,85.864685 32.075253,83.566010 25.045002,76.197639 
	C16.072109,66.793190 11.881033,55.646481 12.958792,42.539200 
	C13.604321,34.688530 16.883373,28.646803 24.281914,24.365322 
	C32.826500,21.624998 40.219444,23.964727 48.310738,28.039986 
	C47.780376,24.814861 47.398136,22.490484 47.015900,20.166107z" />
    <path fill="#FFFFFF" opacity="1.000000" stroke="none" d="
    M46.692169,20.019810
	C47.398136,22.490484 47.780376,24.814861 48.310738,28.039986 
	C40.219444,23.964727 32.826500,21.624998 24.331570,24.021790 
	C22.627705,20.374990 21.354759,16.723335 20.078680,13.062687 
	C33.733116,8.470138 41.530666,11.335163 46.692169,20.019810z" />
</svg>