<svg width="23" height="25" viewBox="0 0 23 25" fill="none" xmlns="http://www.w3.org/2000/svg">
    <path d="M8.6111 6.14984H3.08024C2.66113 6.14984 2.2592 6.33249 1.96284 6.65758C1.66649 6.98269 1.5 7.42363 1.5 7.88338V21.7518C1.5 22.2115 1.66649 22.6524 1.96284 22.9776C2.2592 23.3026 2.66113 23.4854 3.08024 23.4854H17.3024C18.1752 23.4854 18.8827 22.7091 18.8827 21.7518V14.8176" stroke="#399A17" stroke-width="2" stroke-linecap="round" stroke-linejoin="round"/>
    <path d="M1.5 10.4837H11.7716" stroke="#399A17" stroke-width="2" stroke-linecap="round" stroke-linejoin="round"/>
    <path d="M5.45062 19.1515L7.82099 16.5511L5.45062 13.9508" stroke="#399A17" stroke-width="2" stroke-linecap="round" stroke-linejoin="round"/>
    <path d="M10.1913 19.1515H12.5617" stroke="#399A17" stroke-width="2" stroke-linecap="round" stroke-linejoin="round"/>
    <path d="M12.3657 6.9529C11.8112 6.84707 11.8112 5.97375 12.3657 5.86791C14.3748 5.48449 15.9727 3.80578 16.4088 1.62047L16.4422 1.45296C16.5622 0.851711 17.3426 0.84797 17.4674 1.44805L17.508 1.64326C17.9601 3.81826 19.5585 5.48279 21.562 5.86514C22.1193 5.97153 22.1193 6.84929 21.562 6.95566C19.5585 7.33803 17.9601 9.00256 17.508 11.1775L17.4674 11.3728C17.3426 11.9728 16.5622 11.9691 16.4422 11.3679L16.4088 11.2003C15.9727 9.01502 14.3748 7.33633 12.3657 6.9529Z" stroke="#399A17" stroke-width="2" stroke-linecap="round" stroke-linejoin="round"/>
</svg>
